<?xml version="1.0" standalone="no"?>
<!DOCTYPE svg PUBLIC "-//W3C//DTD SVG 20010904//EN"
 "http://www.w3.org/TR/2001/REC-SVG-20010904/DTD/svg10.dtd">
<svg version="1.0" xmlns="http://www.w3.org/2000/svg"
 width="310.000000pt" height="310.000000pt" viewBox="0 0 310.000000 310.000000"
 preserveAspectRatio="xMidYMid meet">
<metadata>
Created by potrace 1.14, written by Peter Selinger 2001-2017
</metadata>
<g transform="translate(0.000000,310.000000) scale(0.100000,-0.100000)"
fill="#000000" stroke="none">
<path d="M1548 3078 c-1 -16 -5 -31 -8 -38 -1 -3 -4 -14 -6 -25 -5 -34 -9 -50
-15 -60 -4 -5 -10 -23 -14 -40 -5 -16 -9 -32 -10 -35 -1 -3 -5 -17 -9 -32 -5
-16 -11 -28 -15 -28 -4 0 -7 -8 -8 -17 -1 -10 -11 -39 -23 -65 -11 -26 -20
-51 -20 -54 1 -4 -2 -10 -7 -13 -4 -3 -23 -35 -41 -71 -18 -36 -45 -87 -62
-115 -29 -50 -45 -78 -71 -125 -23 -41 -53 -85 -62 -91 -5 -3 -7 -8 -6 -10 5
-6 -35 -69 -43 -69 -4 0 -8 -7 -8 -15 0 -13 -35 -72 -60 -102 -6 -7 -8 -13 -5
-13 4 0 -2 -12 -12 -27 -10 -16 -27 -46 -38 -68 -11 -22 -24 -43 -28 -46 -5
-3 -8 -9 -7 -13 0 -3 -11 -33 -26 -66 -14 -32 -25 -62 -24 -66 1 -4 -3 -10
-10 -14 -6 -4 -13 -19 -16 -35 -3 -16 -8 -33 -12 -39 -3 -6 -8 -20 -10 -31 -5
-27 -8 -37 -17 -59 -11 -24 -12 -240 -2 -286 5 -19 10 -44 12 -55 6 -33 56
-179 63 -185 4 -3 24 -30 45 -61 43 -65 159 -177 212 -205 11 -6 36 -20 57
-32 20 -11 39 -18 42 -15 3 4 6 1 6 -5 0 -7 3 -11 8 -10 4 0 14 -2 22 -5 31
-13 107 -29 147 -30 24 -1 43 -5 43 -8 0 -8 73 -5 87 4 6 4 14 3 18 -3 4 -6
12 -7 18 -3 7 4 24 8 40 9 15 1 30 3 35 4 4 2 12 4 17 5 35 7 72 19 84 29 8 6
16 10 18 8 2 -1 25 7 51 19 26 12 50 21 55 21 4 -1 7 2 7 8 0 5 12 16 28 24
36 19 183 166 176 177 -3 5 -1 9 4 9 5 0 28 37 50 82 39 81 47 101 58 150 3
13 8 34 11 48 8 30 8 242 0 287 -16 95 -102 333 -120 333 -6 0 -8 3 -4 6 7 8
-44 105 -121 229 -18 28 -37 61 -44 75 -7 14 -15 27 -18 30 -11 10 -65 96 -79
125 -9 17 -18 32 -22 35 -14 10 -97 159 -92 164 3 3 -1 8 -10 12 -9 3 -19 19
-22 35 -4 16 -11 29 -16 29 -5 0 -9 7 -9 15 0 8 -4 15 -10 15 -5 0 -7 7 -4 15
4 8 1 15 -5 15 -6 0 -10 3 -8 8 2 7 -5 26 -48 127 -14 31 -34 102 -42 144 -13
73 -20 95 -31 99 -7 2 -13 -2 -14 -10z m-81 -741 c-9 -23 -19 -63 -23 -89 -3
-27 -11 -48 -16 -48 -5 0 -7 -4 -4 -8 5 -8 -23 -113 -43 -164 -6 -16 -9 -28
-6 -28 2 0 -5 -21 -17 -47 -32 -74 -67 -194 -61 -209 3 -8 -1 -14 -8 -14 -7 0
-10 -2 -7 -5 3 -3 0 -36 -6 -73 -6 -37 -11 -124 -10 -195 1 -70 -3 -130 -7
-133 -5 -3 -9 -12 -9 -21 0 -14 -34 -52 -49 -54 -3 0 -15 -2 -25 -4 -31 -6
-77 24 -89 58 -6 18 -10 35 -9 40 1 4 -2 7 -6 7 -5 0 -7 42 -5 93 4 116 6 130
18 139 6 5 5 8 -2 8 -9 0 -10 7 -4 23 5 12 19 54 32 92 12 39 25 72 28 75 3 3
31 54 61 113 30 60 63 117 73 128 10 10 15 19 12 19 -3 0 5 15 19 33 15 19 26
39 26 45 0 7 5 12 10 12 6 0 10 5 10 11 0 6 9 23 20 39 11 15 17 30 13 34 -3
3 -2 6 4 6 6 0 14 10 18 23 14 42 47 110 58 118 5 3 8 9 8 13 -1 3 -1 12 0 19
0 9 2 9 6 -1 3 -8 -2 -32 -10 -55z"/>
<path d="M800 961 c0 -3 -15 -6 -32 -7 -42 -1 -108 -10 -128 -17 -22 -8 -94
-31 -100 -32 -19 -3 -88 -31 -137 -55 -56 -27 -165 -100 -151 -100 4 0 -5 -12
-20 -27 -42 -43 -54 -72 -57 -137 -3 -78 25 -142 93 -212 50 -51 178 -141 194
-136 4 1 8 -2 8 -8 0 -6 3 -9 8 -8 4 1 31 -10 61 -25 29 -15 58 -24 62 -21 5
3 9 1 9 -4 0 -9 30 -20 125 -48 76 -23 88 -26 118 -31 15 -3 27 -9 27 -14 0
-5 7 -6 15 -3 8 4 23 3 33 -1 9 -5 22 -9 27 -10 24 -3 112 -18 130 -22 51 -10
141 -20 265 -28 114 -7 485 -4 485 5 0 1 25 4 55 6 81 6 120 10 165 20 22 4
42 8 45 9 3 0 10 3 15 5 6 3 25 5 43 5 17 0 32 3 32 8 0 5 6 7 13 4 6 -2 23 0
37 5 14 6 34 12 45 14 48 9 63 14 117 32 31 11 59 18 62 15 3 -4 6 -2 6 4 0 6
13 13 29 16 86 18 269 125 351 207 135 134 141 258 18 378 -58 58 -78 75 -78
67 0 -4 -12 2 -27 13 -24 16 -56 32 -73 36 -3 1 -15 7 -27 14 -13 7 -23 10
-23 6 0 -3 -6 -2 -13 4 -15 13 -146 51 -202 58 -22 3 -57 10 -79 14 -84 18
-90 -18 -7 -42 32 -10 71 -23 87 -29 16 -7 32 -13 37 -14 4 -2 9 -4 12 -5 3
-1 8 -3 13 -4 23 -6 166 -78 213 -108 84 -54 148 -125 134 -148 -3 -4 0 -10 7
-12 9 -3 8 -16 -6 -51 -24 -63 -101 -131 -212 -188 -77 -40 -209 -92 -239 -95
-5 0 -37 -9 -70 -19 -33 -10 -70 -19 -82 -21 -11 -1 -31 -5 -42 -9 -12 -3 -34
-8 -49 -10 -15 -2 -43 -7 -62 -10 -59 -12 -131 -21 -225 -29 -17 -1 -35 -4
-40 -7 -31 -16 -670 4 -670 21 0 1 -13 3 -30 5 -65 6 -122 15 -160 24 -22 5
-51 12 -65 15 -14 2 -46 11 -72 19 -26 8 -49 12 -52 9 -4 -3 -6 -1 -6 5 0 5
-6 10 -12 10 -29 1 -67 13 -135 42 -40 16 -73 27 -73 23 0 -4 -4 -2 -8 4 -4 5
-23 18 -42 27 -32 16 -54 29 -84 49 -36 23 -96 82 -96 93 0 7 -5 15 -11 17
-16 5 -24 93 -10 110 6 7 23 28 37 46 40 49 213 160 228 145 3 -4 6 -1 6 5 0
6 14 13 30 17 17 4 30 11 30 15 0 5 7 7 15 4 8 -4 15 -1 15 5 0 6 3 10 8 9 4
0 14 1 22 5 8 3 49 17 90 31 73 24 97 48 53 51 -13 1 -23 -1 -23 -4z"/>
<path d="M869 813 c-13 -7 -32 -13 -41 -13 -10 0 -18 -5 -18 -12 0 -6 -3 -8
-6 -5 -16 15 -116 -73 -121 -107 -2 -11 -9 -24 -16 -28 -9 -6 -9 -8 0 -8 7 0
10 -6 7 -14 -6 -16 27 -78 60 -111 31 -31 160 -100 217 -116 24 -7 49 -14 54
-16 13 -4 131 -30 170 -38 17 -3 55 -8 85 -11 30 -3 82 -9 115 -13 115 -12
502 0 530 17 6 4 21 7 35 8 34 2 143 25 155 32 5 3 18 7 30 8 11 1 34 8 50 15
17 6 37 13 45 15 9 2 43 17 75 35 77 40 142 107 151 156 8 41 -10 100 -35 121
-60 48 -108 71 -182 88 -11 2 -28 6 -39 8 -38 9 -22 -28 22 -49 57 -27 135
-90 143 -114 9 -29 -10 -57 -57 -87 -46 -29 -143 -65 -152 -57 -3 4 -6 2 -6
-4 0 -6 -10 -9 -22 -9 -13 1 -27 -1 -33 -5 -5 -4 -30 -10 -55 -14 -25 -4 -56
-10 -70 -12 -14 -2 -45 -6 -70 -8 -25 -1 -45 -4 -45 -5 0 -7 -78 -9 -280 -9
-256 0 -275 1 -275 9 0 3 -21 5 -48 6 -50 1 -92 7 -169 25 -27 6 -57 12 -68
15 -112 21 -245 95 -245 134 0 28 68 91 139 129 34 18 61 38 61 44 0 16 -59
16 -91 0z"/>
</g>
</svg>
